<svg width="60" height="60" viewBox="0 0 60 60" fill="none" xmlns="http://www.w3.org/2000/svg">
<rect width="60" height="60" rx="12" fill="url(#paint0_linear_2013_14)"/>
<path 
d="M30.027 20.4975C30.0607 20.3536 30.1225 20.2177 30.2087 20.0976C30.295 19.9776 30.4041 19.8757 30.5297 19.7978C30.6554 19.72 30.7951 19.6676 30.941 19.6438C31.0869 19.62 31.2361 19.6251 31.38 19.659C32.462 19.9153 33.4517 20.467 34.2388 21.2525C35.0258 22.038 35.5795 23.0265 35.838 24.108C35.907 24.3984 35.8578 24.7043 35.7013 24.9585C35.5448 25.2127 35.2937 25.3942 35.0032 25.4632C34.7128 25.5323 34.4069 25.4831 34.1527 25.3266C33.8986 25.17 33.717 24.9189 33.648 24.6285C33.4861 23.9532 33.1403 23.3359 32.6488 22.8453C32.1574 22.3546 31.5396 22.0098 30.864 21.849C30.5739 21.7806 30.3228 21.5998 30.1659 21.3464C30.009 21.093 29.959 20.7877 30.027 20.4975Z"
 fill="#1E2022"/>
<path 
d="M19.5 25.5C19.5 22.7152 20.6062 20.0445 22.5754 18.0754C24.5445 16.1062 27.2152 15 30 15C32.7848 15 35.4555 16.1062 37.4246 18.0754C39.3938 20.0445 40.5 22.7152 40.5 25.5C40.5 28.5375 39.495 31.854 37.725 34.434C36.162 36.714 33.9105 38.5305 31.125 38.922V39.375C31.125 39.996 31.629 40.5 32.25 40.5H37.125C37.5682 40.5 38.0071 40.5873 38.4166 40.7569C38.826 40.9265 39.1981 41.1751 39.5115 41.4885C39.8249 41.8019 40.0735 42.174 40.2431 42.5834C40.4127 42.9929 40.5 43.4318 40.5 43.875V45.375C40.5 45.6734 40.3815 45.9595 40.1705 46.1705C39.9595 46.3815 39.6734 46.5 39.375 46.5C39.0766 46.5 38.7905 46.3815 38.5795 46.1705C38.3685 45.9595 38.25 45.6734 38.25 45.375V43.875C38.25 43.5766 38.1315 43.2905 37.9205 43.0795C37.7095 42.8685 37.4234 42.75 37.125 42.75H32.25C31.3549 42.75 30.4965 42.3944 29.8635 41.7615C29.2306 41.1285 28.875 40.2701 28.875 39.375V38.922C26.0895 38.5305 23.838 36.7125 22.275 34.434C20.505 31.854 19.5 28.5375 19.5 25.5ZM30 17.25C27.812 17.25 25.7135 18.1192 24.1664 19.6664C22.6192 21.2135 21.75 23.312 21.75 25.5C21.75 28.0875 22.62 30.96 24.129 33.1605C25.641 35.3625 27.6795 36.75 30 36.75C32.3205 36.75 34.359 35.3625 35.871 33.1605C37.38 30.9585 38.25 28.0875 38.25 25.5C38.25 23.312 37.3808 21.2135 35.8336 19.6664C34.2865 18.1192 32.188 17.25 30 17.25Z" 
fill="#1E2022"/>
<defs>
<linearGradient id="paint0_linear_2013_14" x1="20.5" y1="17" x2="60" y2="60" gradientUnits="userSpaceOnUse">
<stop stop-color="#FFF76A"/>
<stop offset="1" stop-color="#FFCE89"/>
</linearGradient>
</defs>
</svg>
